<?xml version="1.0" standalone="no"?>
<!DOCTYPE svg PUBLIC "-//W3C//DTD SVG 20010904//EN"
 "http://www.w3.org/TR/2001/REC-SVG-20010904/DTD/svg10.dtd">
<svg version="1.0" xmlns="http://www.w3.org/2000/svg"
 width="1200.000000pt" height="1200.000000pt" viewBox="0 0 1200.000000 1200.000000"
 preserveAspectRatio="xMidYMid meet">
<metadata>
Created by potrace 1.16, written by Peter Selinger 2001-2019
</metadata>
<g transform="translate(0.000000,1200.000000) scale(0.100000,-0.100000)"
fill="#000000" stroke="none">
<path d="M5530 8968 c-256 -149 -775 -451 -1155 -671 -379 -220 -691 -400
-691 -401 -1 0 -4 -176 -8 -391 l-7 -390 213 -122 c117 -67 221 -128 231 -135
15 -12 -8 -28 -208 -143 l-225 -130 0 -145 c0 -80 -3 -255 -6 -390 l-6 -245
674 -387 c370 -213 895 -516 1167 -672 272 -157 497 -283 500 -282 11 7 1618
940 1961 1139 190 110 346 200 346 201 1 0 4 177 8 391 l7 390 -226 129 c-124
71 -227 132 -229 135 -3 4 96 65 220 136 l224 130 0 155 c0 85 3 261 6 390 l6
235 -369 211 c-202 117 -719 414 -1148 661 -429 248 -789 455 -800 460 -17 9
-90 -30 -485 -259z m1281 -988 c448 -259 814 -475 814 -481 0 -8 -417 -259
-431 -259 -1 0 -263 150 -581 333 -318 184 -587 339 -598 344 -17 9 -108 -40
-610 -331 l-590 -342 -227 130 c-170 98 -224 134 -215 142 7 6 248 148 537
315 289 167 647 374 795 461 149 87 275 158 281 158 7 0 378 -212 825 -470z
m-559 -986 c139 -80 254 -147 256 -149 2 -1 -100 -62 -225 -135 -125 -74 -237
-139 -248 -146 -18 -12 -46 1 -276 134 -140 81 -255 152 -256 157 -1 11 464
284 484 285 6 0 125 -66 265 -146z m-1295 -620 c81 -48 350 -203 596 -346
l449 -259 131 76 c73 41 339 196 592 343 l460 268 220 -127 c121 -70 220 -132
220 -138 0 -10 -1591 -943 -1611 -944 -6 0 -213 117 -460 260 -247 143 -616
356 -821 474 -204 118 -368 218 -364 222 7 7 432 256 438 257 1 0 68 -39 150
-86z"/>
<path d="M2080 3331 l0 -80 -37 16 c-77 32 -180 -7 -214 -81 -72 -158 77 -322
224 -247 29 15 37 16 37 5 0 -10 14 -14 50 -14 l50 0 0 240 0 240 -55 0 -55 0
0 -79z m-26 -162 c22 -17 26 -28 26 -69 0 -41 -4 -52 -26 -69 -60 -47 -134 -8
-134 69 0 77 74 116 134 69z"/>
<path d="M4770 3170 l0 -240 55 0 55 0 0 105 c0 99 2 107 25 130 28 29 61 32
93 9 21 -14 22 -23 22 -130 l0 -114 55 0 55 0 0 121 c0 146 -11 178 -74 209
-49 23 -85 25 -138 6 l-38 -14 0 79 0 79 -55 0 -55 0 0 -240z"/>
<path d="M4341 3368 c-32 -16 -48 -32 -62 -62 -23 -51 -23 -69 -3 -112 20 -41
53 -60 153 -88 79 -23 104 -44 85 -73 -16 -25 -135 -25 -183 0 -19 9 -36 17
-37 17 -7 0 -34 -59 -34 -73 0 -23 71 -50 147 -55 101 -7 136 3 183 47 37 35
40 42 40 90 0 77 -36 110 -153 141 -96 26 -116 43 -91 78 12 18 25 22 65 22
27 0 66 -7 86 -15 48 -20 48 -20 63 26 12 35 12 42 -1 50 -55 35 -193 39 -258
7z"/>
<path d="M8540 3369 c-94 -42 -134 -107 -134 -214 0 -76 20 -130 66 -172 87
-82 271 -84 342 -4 19 21 19 22 -14 56 l-34 35 -21 -20 c-50 -47 -142 -44
-190 4 -51 51 -51 151 0 201 48 49 140 52 190 5 l21 -20 34 35 c33 34 33 35
14 56 -52 59 -187 78 -274 38z"/>
<path d="M1020 3155 l0 -225 55 0 55 0 0 60 0 60 48 0 c47 0 47 -1 86 -60 l38
-60 60 0 c45 0 57 3 52 13 -4 6 -25 39 -47 71 l-40 59 27 20 c60 43 78 145 37
211 -38 60 -87 76 -239 76 l-132 0 0 -225z m258 119 c16 -11 22 -25 22 -53 0
-54 -24 -72 -105 -78 l-65 -6 0 77 0 76 63 0 c40 0 70 -5 85 -16z"/>
<path d="M9970 3310 c0 -36 -2 -40 -25 -40 -23 0 -25 -4 -25 -45 0 -41 2 -45
24 -45 22 0 23 -4 28 -90 6 -103 21 -134 76 -157 37 -16 117 -12 135 6 5 5 4
24 -4 44 -11 32 -16 35 -41 30 -46 -9 -58 10 -58 93 l0 73 43 3 c42 3 42 3 45
46 l3 42 -45 0 -46 0 0 40 0 40 -55 0 -55 0 0 -40z"/>
<path d="M3077 3264 c-56 -17 -64 -31 -43 -72 15 -29 16 -30 53 -16 55 19 100
17 123 -6 11 -11 20 -24 20 -29 0 -5 -39 -11 -86 -12 -82 -4 -87 -5 -115 -37
-85 -95 37 -212 166 -158 20 9 35 11 35 5 0 -6 22 -9 52 -7 l53 3 -2 123 c-2
135 -12 165 -65 197 -41 24 -132 28 -191 9z"/>
<path d="M3665 3273 c-11 -3 -26 -10 -34 -17 -11 -8 -15 -8 -18 2 -3 7 -24 12
-59 12 l-54 0 0 -170 0 -170 55 0 55 0 0 105 c0 99 2 107 25 130 28 29 61 32
93 9 21 -14 22 -23 22 -130 l0 -114 55 0 55 0 0 121 c0 146 -11 178 -74 209
-41 19 -78 23 -121 13z"/>
<path d="M5387 3265 c-77 -27 -117 -84 -117 -168 0 -176 244 -242 353 -95 24
33 33 114 18 161 -30 91 -151 139 -254 102z m128 -100 c54 -53 18 -155 -55
-155 -19 0 -40 9 -55 25 -54 53 -18 155 55 155 19 0 40 -9 55 -25z"/>
<path d="M5933 3265 c-18 -8 -33 -10 -33 -5 0 6 -25 10 -55 10 l-55 0 0 -230
0 -230 55 0 55 0 0 69 0 70 35 -15 c70 -29 162 -5 204 54 43 62 43 163 -1 224
-41 59 -137 83 -205 53z m103 -98 c21 -19 27 -32 27 -67 0 -35 -6 -48 -28 -68
-55 -47 -135 -8 -135 65 0 43 15 72 43 83 37 15 65 11 93 -13z"/>
<path d="M6453 3265 c-18 -8 -33 -10 -33 -5 0 6 -25 10 -55 10 l-55 0 0 -230
0 -230 55 0 55 0 0 69 0 70 35 -15 c70 -29 162 -5 204 54 43 62 43 163 -1 224
-41 59 -137 83 -205 53z m103 -98 c21 -19 27 -32 27 -67 0 -35 -6 -48 -28 -68
-55 -47 -135 -8 -135 65 0 43 15 72 43 83 37 15 65 11 93 -13z"/>
<path d="M7265 3273 c-11 -3 -26 -10 -34 -17 -11 -8 -15 -8 -18 2 -3 7 -24 12
-59 12 l-54 0 0 -170 0 -170 55 0 55 0 0 105 c0 99 2 107 25 130 28 29 61 32
93 9 21 -14 22 -23 22 -130 l0 -114 55 0 55 0 0 121 c0 146 -11 178 -74 209
-41 19 -78 23 -121 13z"/>
<path d="M7690 3258 c-67 -34 -93 -79 -88 -153 4 -69 24 -103 79 -134 44 -25
127 -28 169 -6 32 17 36 10 19 -28 -21 -46 -88 -59 -164 -32 -54 20 -53 20
-72 -21 -20 -42 -17 -46 66 -70 66 -20 157 -14 202 13 74 42 87 91 88 306 l1
137 -55 0 c-40 0 -55 -4 -55 -14 0 -11 -8 -10 -37 5 -49 25 -99 24 -153 -3z
m149 -83 c46 -23 54 -66 20 -109 -16 -21 -29 -26 -63 -26 -59 0 -86 22 -86 70
0 66 64 99 129 65z"/>
<path d="M9050 3264 c-74 -32 -110 -86 -110 -164 0 -59 17 -97 60 -133 68 -58
196 -61 262 -8 l23 19 -28 30 c-28 29 -30 30 -63 16 -18 -8 -46 -14 -62 -14
-29 0 -82 33 -82 51 0 5 57 9 130 9 128 0 130 0 130 23 0 134 -138 224 -260
171z"/>
<path d="M9605 3273 c-11 -3 -26 -10 -34 -17 -11 -8 -15 -8 -18 2 -3 7 -24 12
-59 12 l-54 0 0 -170 0 -170 55 0 55 0 0 105 c0 99 2 107 25 130 28 29 61 32
93 9 21 -14 22 -23 22 -130 l0 -114 55 0 55 0 0 121 c0 146 -11 178 -74 209
-41 19 -78 23 -121 13z"/>
<path d="M10400 3264 c-74 -32 -110 -86 -110 -164 0 -59 17 -97 60 -133 68
-58 196 -61 262 -8 l23 19 -28 30 c-28 29 -30 30 -63 16 -18 -8 -46 -14 -62
-14 -29 0 -82 33 -82 51 0 5 57 9 130 9 128 0 130 0 130 23 0 134 -138 224
-260 171z"/>
<path d="M10940 3264 c-22 -10 -36 -11 -38 -4 -2 5 -28 10 -58 10 l-54 0 0
-170 0 -170 55 0 55 0 0 100 c0 94 2 103 25 125 15 16 36 25 55 25 29 0 30 1
30 50 0 56 -9 61 -70 34z"/>
<path d="M1560 3100 l0 -170 55 0 55 0 0 170 0 170 -55 0 -55 0 0 -170z"/>
<path d="M2310 3265 c0 -4 97 -271 115 -317 6 -14 19 -18 59 -18 l52 0 33 90
c18 50 36 92 40 94 4 3 22 -38 40 -90 l33 -94 53 0 53 0 61 165 c34 91 61 168
61 170 0 3 -21 5 -47 5 l-48 0 -34 -98 c-19 -53 -37 -101 -41 -105 -4 -5 -16
15 -25 45 -10 29 -26 77 -37 106 l-19 52 -47 0 -47 0 -40 -111 -39 -110 -13
38 c-7 21 -25 71 -39 111 l-26 72 -49 0 c-27 0 -49 -2 -49 -5z"/>
<path d="M6830 3100 l0 -170 55 0 55 0 0 170 0 170 -55 0 -55 0 0 -170z"/>
</g>
</svg>
